<?xml version="1.0" standalone="no"?>
<!DOCTYPE svg PUBLIC "-//W3C//DTD SVG 20010904//EN"
 "http://www.w3.org/TR/2001/REC-SVG-20010904/DTD/svg10.dtd">
<svg version="1.0" xmlns="http://www.w3.org/2000/svg"
 width="3559.000000pt" height="976.000000pt" viewBox="0 0 3559.000000 976.000000"
 preserveAspectRatio="xMidYMid meet">

<g transform="translate(0.000000,976.000000) scale(0.100000,-0.100000)"
fill="#000000" stroke="none">
<path d="M6520 8140 c-13 -8 -15 -179 -18 -1420 -1 -969 1 -1417 8 -1431 11
-19 30 -19 1368 -17 l1357 3 3 23 c8 55 89 52 -1334 52 l-1314 0 0 1381 c0
932 -3 1387 -10 1400 -12 21 -36 24 -60 9z"/>
<path d="M15321 8136 c-8 -10 -10 -391 -9 -1431 3 -1338 4 -1418 21 -1429 12
-8 22 -8 35 0 16 10 17 57 20 703 l2 691 683 2 682 3 3 23 c8 54 34 52 -694
52 l-674 0 0 660 0 660 1365 0 c1339 0 1364 0 1375 19 13 25 13 27 -6 45 -14
14 -155 16 -1403 16 -1157 0 -1390 -2 -1400 -14z"/>
<path d="M22382 8138 c-17 -17 -17 -2839 0 -2856 7 -7 21 -12 32 -12 14 0 236
215 676 655 l655 655 655 -655 c441 -441 662 -655 675 -655 25 0 45 18 45 39
0 9 -296 312 -657 673 l-658 658 659 659 c457 458 657 664 654 676 -1 10 -13
25 -26 33 -23 15 -41 -2 -1328 -1289 l-1304 -1304 -2 1358 c-3 1194 -5 1359
-18 1367 -21 13 -44 12 -58 -2z"/>
<path d="M25830 8131 c-16 -31 -14 -2822 3 -2844 11 -16 102 -17 1361 -15
1272 3 1349 4 1360 21 8 12 8 22 0 35 -11 16 -86 17 -1328 20 l-1316 2 0 1384
c0 1245 -2 1386 -16 1400 -21 22 -51 20 -64 -3z"/>
<path d="M18858 8089 c-17 -9 -18 -87 -18 -1402 0 -1070 3 -1396 12 -1405 9
-9 335 -12 1405 -12 1382 0 1392 0 1403 20 8 14 8 26 0 40 -11 20 -21 20
-1375 20 l-1365 0 0 645 0 645 673 0 c369 0 677 4 683 8 17 11 22 35 12 55 -8
16 -51 17 -688 17 l-680 0 0 645 0 645 1359 0 c1223 0 1361 2 1375 16 21 20
20 37 -2 57 -17 16 -128 17 -1398 17 -918 -1 -1385 -4 -1396 -11z"/>
<path d="M29280 8080 c-20 -20 -20 -33 -20 -1398 0 -1087 3 -1382 13 -1395 11
-16 104 -17 1406 -15 1315 3 1394 4 1405 21 8 12 8 22 0 35 -11 16 -88 17
-1373 20 l-1361 2 0 645 0 645 676 2 c632 3 678 4 688 21 8 12 8 22 0 35 -10
16 -56 17 -688 20 l-676 2 0 645 0 645 1351 0 c912 0 1357 3 1370 10 11 6 19
21 19 35 0 14 -8 29 -19 35 -13 7 -466 10 -1395 10 -1363 0 -1376 0 -1396 -20z"/>
<path d="M32817 8088 c-16 -12 -17 -100 -15 -1413 l3 -1400 23 -3 c55 -8 52
-93 52 1379 l0 1359 1074 0 1075 0 89 -46 c181 -92 304 -244 348 -431 20 -83
22 -248 5 -323 -42 -177 -171 -324 -366 -416 -165 -78 -106 -74 -1103 -74
-973 0 -930 3 -904 -55 l12 -25 822 0 823 0 103 -50 c293 -141 478 -354 575
-665 44 -142 60 -264 61 -465 l1 -185 26 -3 c45 -5 53 18 57 164 16 519 -200
961 -573 1174 l-58 33 89 32 c110 39 162 65 239 120 143 101 248 256 281 415
19 90 14 264 -11 355 -56 212 -197 380 -404 483 l-94 47 -1106 3 c-879 2
-1110 0 -1124 -10z"/>
<path d="M12 8068 c-15 -15 -15 -41 0 -56 9 -9 182 -12 715 -12 l703 0 2
-1362 3 -1363 23 -3 c55 -8 52 -92 52 1374 l0 1354 705 0 c694 0 704 0 715 20
8 14 8 26 0 40 -11 20 -21 20 -1458 20 -1113 0 -1451 -3 -1460 -12z"/>
<path d="M4156 8048 c-8 -13 -318 -614 -689 -1337 -523 -1020 -673 -1319 -667
-1335 5 -15 16 -21 36 -21 28 0 35 11 174 284 l145 283 530 -6 c292 -3 753 -6
1025 -6 l495 0 160 -318 c146 -289 162 -317 187 -320 19 -2 30 3 38 17 9 18
-82 206 -664 1369 -372 741 -685 1362 -696 1380 -23 38 -53 42 -74 10z m513
-2046 c-269 -1 -709 -1 -979 0 l-490 3 488 950 c268 523 492 956 496 964 7 10
150 -267 491 -950 l483 -964 -489 -3z"/>
<path d="M12245 2647 c-108 -28 -189 -89 -237 -180 -33 -61 -33 -203 0 -265
47 -88 92 -125 356 -287 44 -27 94 -62 113 -78 104 -91 108 -257 9 -344 -53
-47 -96 -62 -196 -70 -88 -6 -173 12 -262 57 l-58 30 0 -54 c0 -53 1 -54 38
-69 59 -23 184 -47 250 -47 183 0 324 79 373 210 26 70 24 194 -6 254 -32 66
-115 137 -271 231 -164 98 -247 168 -265 223 -20 60 -15 136 12 189 62 122
250 166 433 103 33 -11 61 -20 63 -20 1 0 3 22 3 48 l0 49 -52 12 c-77 19
-243 23 -303 8z"/>
<path d="M13421 2644 c-206 -44 -358 -186 -428 -399 -34 -105 -43 -319 -19
-435 37 -176 155 -338 298 -408 167 -82 391 -82 558 0 82 39 193 149 237 233
61 117 78 200 78 385 -1 155 -2 170 -29 245 -89 257 -285 396 -551 394 -44 0
-109 -7 -144 -15z m235 -73 c190 -36 325 -167 380 -371 24 -89 25 -300 1 -390
-55 -204 -177 -332 -358 -375 -238 -56 -468 49 -563 258 -49 105 -61 166 -61
302 1 196 49 331 160 441 116 117 277 166 441 135z"/>
<path d="M26330 2644 c-223 -48 -399 -227 -460 -468 -25 -100 -27 -275 -4
-379 47 -211 183 -365 384 -433 43 -15 84 -19 185 -19 146 1 212 15 333 70
l72 34 0 275 0 276 -195 0 -195 0 0 -40 0 -40 150 0 150 0 0 -209 c0 -206 0
-210 -22 -226 -41 -28 -151 -56 -243 -62 -163 -9 -281 32 -386 136 -111 111
-153 229 -153 431 -1 135 18 219 71 324 31 60 109 145 172 186 88 56 153 73
281 74 120 1 211 -19 302 -65 l38 -19 0 54 0 55 -66 20 c-136 43 -291 52 -414
25z"/>
<path d="M8780 2000 l0 -640 50 0 50 0 0 260 0 260 118 0 c144 0 218 13 293
50 73 37 110 69 147 128 47 72 65 150 60 251 -9 180 -102 288 -278 321 -29 5
-140 10 -246 10 l-194 0 0 -640z m450 540 c102 -38 162 -117 175 -231 9 -71
-15 -169 -53 -224 -35 -51 -115 -99 -188 -114 -32 -6 -108 -11 -171 -11 l-113
0 0 301 0 301 158 -4 c91 -3 172 -11 192 -18z"/>
<path d="M9880 2000 l0 -640 315 0 315 0 0 40 0 40 -265 0 -265 0 0 265 0 265
235 0 235 0 0 40 0 40 -235 0 -235 0 0 255 0 255 250 0 250 0 0 40 0 40 -300
0 -300 0 0 -640z"/>
<path d="M10890 2001 l0 -641 50 0 50 0 0 285 0 285 93 0 c108 0 155 -11 197
-46 41 -35 65 -78 175 -316 l95 -203 54 -3 55 -3 -110 232 c-117 247 -150 302
-201 343 -28 22 -30 26 -13 26 35 0 142 57 182 97 65 65 87 123 91 235 4 88 1
102 -24 157 -32 72 -84 122 -163 160 -55 25 -61 26 -293 29 l-238 4 0 -641z
m430 548 c28 -6 71 -25 97 -42 143 -96 134 -343 -16 -442 -61 -41 -131 -55
-278 -55 l-133 0 0 275 0 275 140 0 c76 0 162 -5 190 -11z"/>
<path d="M14500 2001 l0 -641 50 0 50 0 -2 550 c-2 303 -1 550 2 550 3 0 11
-10 19 -22 8 -13 187 -260 399 -550 375 -514 386 -528 419 -528 l33 0 0 640 0
640 -45 0 -45 0 2 -551 c3 -462 1 -548 -10 -532 -8 10 -188 257 -401 548
l-388 530 -41 3 -42 3 0 -640z"/>
<path d="M16262 2613 c-5 -15 -101 -269 -212 -563 -111 -294 -215 -570 -231
-612 l-28 -78 52 0 52 0 71 198 71 197 275 3 275 2 60 -162 c33 -90 66 -180
74 -200 13 -37 14 -38 66 -38 l53 0 -27 73 c-15 39 -122 326 -238 637 l-210
565 -46 3 c-43 3 -47 1 -57 -25z m225 -578 l69 -190 -117 -3 c-65 -1 -174 -1
-242 0 l-125 3 94 260 c52 143 106 295 121 338 l26 79 52 -149 c29 -81 84
-233 122 -338z"/>
<path d="M17150 2000 l0 -640 305 0 305 0 0 40 0 40 -255 0 -255 0 0 600 0
600 -50 0 -50 0 0 -640z"/>
<path d="M18570 2600 l0 -40 185 0 185 0 0 -600 0 -600 45 0 45 0 0 600 0 600
185 0 185 0 0 40 0 40 -415 0 -415 0 0 -40z"/>
<path d="M19720 2001 l0 -641 50 0 50 0 0 285 0 285 93 0 c108 0 155 -11 197
-46 41 -35 65 -78 175 -316 l95 -203 54 -3 55 -3 -110 232 c-117 247 -150 302
-201 343 -28 22 -30 26 -13 26 35 0 142 57 182 97 65 65 87 123 91 235 4 88 1
102 -24 157 -32 72 -84 122 -163 160 -55 25 -61 26 -293 29 l-238 4 0 -641z
m430 548 c28 -6 71 -25 97 -42 143 -96 134 -343 -16 -442 -61 -41 -131 -55
-278 -55 l-133 0 0 275 0 275 140 0 c76 0 162 -5 190 -11z"/>
<path d="M21192 2613 c-5 -15 -101 -269 -212 -563 -111 -294 -215 -570 -231
-612 l-28 -78 52 0 52 0 71 198 71 197 275 3 275 2 60 -162 c33 -90 66 -180
74 -200 13 -37 14 -38 66 -38 l53 0 -27 73 c-15 39 -122 326 -238 637 l-210
565 -46 3 c-43 3 -47 1 -57 -25z m225 -578 l69 -190 -117 -3 c-65 -1 -174 -1
-242 0 l-125 3 94 260 c52 143 106 295 121 338 l26 79 52 -149 c29 -81 84
-233 122 -338z"/>
<path d="M22080 2000 l0 -640 50 0 50 0 0 640 0 640 -50 0 -50 0 0 -640z"/>
<path d="M22600 2001 l0 -641 50 0 50 0 -2 550 c-2 303 -1 550 2 550 3 0 11
-10 19 -22 8 -13 187 -260 399 -550 375 -514 386 -528 419 -528 l33 0 0 640 0
640 -45 0 -45 0 2 -551 c3 -462 1 -548 -10 -532 -8 10 -188 257 -401 548
l-388 530 -41 3 -42 3 0 -640z"/>
<path d="M24000 2000 l0 -640 50 0 50 0 0 640 0 640 -50 0 -50 0 0 -640z"/>
<path d="M24520 2001 l0 -641 50 0 50 0 -2 550 c-2 303 -1 550 2 550 3 0 11
-10 19 -22 8 -13 187 -260 399 -550 375 -514 386 -528 419 -528 l33 0 0 640 0
640 -45 0 -45 0 2 -551 c3 -462 1 -548 -10 -532 -8 10 -188 257 -401 548
l-388 530 -41 3 -42 3 0 -640z"/>
</g>
</svg>
