<?xml version="1.0" standalone="no"?>
<!DOCTYPE svg PUBLIC "-//W3C//DTD SVG 20010904//EN"
 "http://www.w3.org/TR/2001/REC-SVG-20010904/DTD/svg10.dtd">
<svg version="1.0" xmlns="http://www.w3.org/2000/svg"
 width="454.000000pt" height="454.000000pt" viewBox="0 0 454.000000 454.000000"
 preserveAspectRatio="xMidYMid meet">
<metadata>
Created by potrace 1.14, written by Peter Selinger 2001-2017
</metadata>
<g transform="translate(0.000000,454.000000) scale(0.100000,-0.100000)"
fill="#000000" stroke="none">
<path d="M2038 4215 c-2 -1 -41 -5 -88 -9 -219 -17 -452 -66 -580 -123 -156
-69 -230 -122 -354 -255 -154 -165 -199 -297 -198 -573 1 -160 14 -292 42
-420 29 -132 29 -129 45 -174 8 -23 15 -45 16 -49 9 -38 72 -228 89 -268 l18
-40 -28 -60 c-41 -85 -109 -283 -126 -368 -28 -138 -37 -222 -39 -351 -2 -126
2 -172 31 -340 11 -61 67 -213 111 -298 92 -180 252 -368 425 -499 l48 -36
792 1 c882 0 795 -7 893 72 57 46 182 169 239 235 165 192 287 468 312 705 8
78 8 266 -1 311 -3 16 -8 45 -11 64 -20 129 -90 332 -166 479 -43 83 -44 90
-23 134 8 18 37 100 64 182 105 316 124 439 124 780 0 153 -1 164 -31 253 -39
113 -89 189 -196 297 -90 91 -172 150 -279 201 -66 31 -197 74 -272 89 -61 12
-76 15 -133 24 -31 6 -84 13 -117 17 -33 3 -73 8 -90 11 -31 5 -512 13 -517 8z
m532 -420 c107 -7 267 -42 322 -70 17 -8 35 -15 39 -15 4 0 34 -16 67 -35 160
-93 251 -247 246 -415 -2 -91 -47 -346 -81 -465 -29 -100 -65 -189 -82 -199
-6 -4 -43 15 -83 42 -243 164 -494 235 -788 222 -59 -3 -201 -24 -242 -36 -9
-3 -25 -6 -35 -8 -19 -4 -137 -42 -163 -53 -8 -3 -17 -7 -20 -8 -19 -5 -161
-73 -185 -88 -102 -63 -127 -77 -135 -77 -27 0 -108 222 -125 345 -4 28 -9 59
-12 70 -2 11 -6 82 -8 158 -2 76 -7 142 -10 147 -4 6 -3 10 2 10 4 0 8 15 7
32 -1 41 23 128 42 149 8 8 14 20 14 26 0 6 25 34 56 62 97 88 271 159 461
187 26 3 57 8 68 11 11 2 61 6 110 9 50 4 91 7 93 9 5 5 340 -2 442 -10z"/>
</g>
</svg>
